<mxfile modified="2021-04-25T05:12:12.514Z" host="app.diagrams.net" agent="5.0 (Windows)" etag="Cvwu9CZixg1xOIrJTLUa" version="14.0.1" type="github">
  <diagram id="Ht1M8jgEwFfnCIfOTk4-" name="Page-1">
    <mxGraphModel dx="1149" dy="763" grid="1" gridSize="10" guides="1" tooltips="1" connect="1" arrows="1" fold="1" page="1" pageScale="1" pageWidth="1169" pageHeight="827" math="0" shadow="0">
      <root>
        <mxCell id="0" />
        <mxCell id="1" parent="0" />
        <mxCell id="-QjtrjUzRDEMRZ5MF8oH-47" value="Title text" style="text;html=1;resizable=0;points=[];autosize=1;align=left;verticalAlign=top;spacingTop=-4;fontSize=30;fontStyle=1" parent="1" vertex="1">
          <mxGeometry x="56.5" y="64.5" width="130" height="40" as="geometry" />
        </mxCell>
        <mxCell id="-QjtrjUzRDEMRZ5MF8oH-48" value="Subtitle text&lt;br style=&quot;font-size: 16px&quot;&gt;" style="text;html=1;resizable=0;points=[];autosize=1;align=left;verticalAlign=top;spacingTop=-4;fontSize=16;" parent="1" vertex="1">
          <mxGeometry x="56.5" y="114.5" width="100" height="20" as="geometry" />
        </mxCell>
        <mxCell id="SCVMTBWpLvtzJIhz15lM-1" value="" style="line;strokeWidth=2;html=1;fontSize=14;" parent="1" vertex="1">
          <mxGeometry x="52.5" y="139.5" width="1060" height="10" as="geometry" />
        </mxCell>
        <mxCell id="nUHHoWJeEu-Wo_ba1Ecn-3" value="" style="rounded=1;whiteSpace=wrap;html=1;" vertex="1" parent="1">
          <mxGeometry x="61.5" y="1120.5" width="490" height="400" as="geometry" />
        </mxCell>
        <mxCell id="nUHHoWJeEu-Wo_ba1Ecn-4" value="VPC-A" style="outlineConnect=0;fontColor=#232F3E;gradientColor=#945DF2;gradientDirection=north;fillColor=#5A30B5;strokeColor=#ffffff;dashed=0;verticalLabelPosition=bottom;verticalAlign=top;align=center;html=1;fontSize=12;fontStyle=0;aspect=fixed;shape=mxgraph.aws4.resourceIcon;resIcon=mxgraph.aws4.vpc;" vertex="1" parent="1">
          <mxGeometry x="96.75" y="1090" width="49.5" height="49.5" as="geometry" />
        </mxCell>
        <mxCell id="nUHHoWJeEu-Wo_ba1Ecn-6" value="Route Table" style="outlineConnect=0;fontColor=#232F3E;gradientColor=none;fillColor=#5A30B5;strokeColor=none;dashed=0;verticalLabelPosition=bottom;verticalAlign=top;align=center;html=1;fontSize=12;fontStyle=0;aspect=fixed;pointerEvents=1;shape=mxgraph.aws4.route_table;" vertex="1" parent="1">
          <mxGeometry x="280.84" y="1380" width="51.32" height="50" as="geometry" />
        </mxCell>
        <mxCell id="nUHHoWJeEu-Wo_ba1Ecn-7" value="&lt;div&gt;Internet Gateway&lt;/div&gt;" style="outlineConnect=0;fontColor=#232F3E;gradientColor=none;fillColor=#5A30B5;strokeColor=none;dashed=0;verticalLabelPosition=bottom;verticalAlign=top;align=center;html=1;fontSize=12;fontStyle=0;aspect=fixed;pointerEvents=1;shape=mxgraph.aws4.internet_gateway;" vertex="1" parent="1">
          <mxGeometry x="409.58" y="1380" width="50" height="50" as="geometry" />
        </mxCell>
        <mxCell id="nUHHoWJeEu-Wo_ba1Ecn-8" value="PCX" style="outlineConnect=0;fontColor=#232F3E;gradientColor=none;fillColor=#5A30B5;strokeColor=none;dashed=0;verticalLabelPosition=bottom;verticalAlign=top;align=center;html=1;fontSize=12;fontStyle=0;aspect=fixed;pointerEvents=1;shape=mxgraph.aws4.peering;" vertex="1" parent="1">
          <mxGeometry x="585" y="1460" width="44" height="44" as="geometry" />
        </mxCell>
        <mxCell id="nUHHoWJeEu-Wo_ba1Ecn-9" value="" style="rounded=1;whiteSpace=wrap;html=1;" vertex="1" parent="1">
          <mxGeometry x="664" y="1120.5" width="490" height="400" as="geometry" />
        </mxCell>
        <mxCell id="nUHHoWJeEu-Wo_ba1Ecn-10" value="VPC-B" style="outlineConnect=0;fontColor=#232F3E;gradientColor=#945DF2;gradientDirection=north;fillColor=#5A30B5;strokeColor=#ffffff;dashed=0;verticalLabelPosition=bottom;verticalAlign=top;align=center;html=1;fontSize=12;fontStyle=0;aspect=fixed;shape=mxgraph.aws4.resourceIcon;resIcon=mxgraph.aws4.vpc;" vertex="1" parent="1">
          <mxGeometry x="695.09" y="1090" width="49.5" height="49.5" as="geometry" />
        </mxCell>
        <mxCell id="nUHHoWJeEu-Wo_ba1Ecn-14" value="" style="group" vertex="1" connectable="0" parent="1">
          <mxGeometry x="90" y="1170" width="189.16" height="120" as="geometry" />
        </mxCell>
        <mxCell id="nUHHoWJeEu-Wo_ba1Ecn-11" value="Subnet-A" style="rounded=1;arcSize=10;dashed=0;fillColor=none;gradientColor=none;strokeWidth=2;" vertex="1" parent="nUHHoWJeEu-Wo_ba1Ecn-14">
          <mxGeometry y="20" width="189.16" height="100" as="geometry" />
        </mxCell>
        <mxCell id="nUHHoWJeEu-Wo_ba1Ecn-12" value="" style="dashed=0;html=1;shape=mxgraph.aws3.permissions;fillColor=#D9A741;gradientColor=none;dashed=0;" vertex="1" parent="nUHHoWJeEu-Wo_ba1Ecn-14">
          <mxGeometry x="19.159999999999997" width="30" height="35" as="geometry" />
        </mxCell>
        <mxCell id="nUHHoWJeEu-Wo_ba1Ecn-16" value="" style="group" vertex="1" connectable="0" parent="1">
          <mxGeometry x="340" y="1170" width="189.16" height="120" as="geometry" />
        </mxCell>
        <mxCell id="nUHHoWJeEu-Wo_ba1Ecn-17" value="Subnet-B" style="rounded=1;arcSize=10;dashed=0;fillColor=none;gradientColor=none;strokeWidth=2;" vertex="1" parent="nUHHoWJeEu-Wo_ba1Ecn-16">
          <mxGeometry y="20" width="189.16" height="100" as="geometry" />
        </mxCell>
        <mxCell id="nUHHoWJeEu-Wo_ba1Ecn-18" value="" style="dashed=0;html=1;shape=mxgraph.aws3.permissions;fillColor=#D9A741;gradientColor=none;dashed=0;" vertex="1" parent="nUHHoWJeEu-Wo_ba1Ecn-16">
          <mxGeometry x="19.159999999999997" width="30" height="35" as="geometry" />
        </mxCell>
        <mxCell id="nUHHoWJeEu-Wo_ba1Ecn-19" value="" style="group" vertex="1" connectable="0" parent="1">
          <mxGeometry x="695.09" y="1170" width="189.16" height="120" as="geometry" />
        </mxCell>
        <mxCell id="nUHHoWJeEu-Wo_ba1Ecn-20" value="Subnet-A" style="rounded=1;arcSize=10;dashed=0;fillColor=none;gradientColor=none;strokeWidth=2;" vertex="1" parent="nUHHoWJeEu-Wo_ba1Ecn-19">
          <mxGeometry y="20" width="189.16" height="100" as="geometry" />
        </mxCell>
        <mxCell id="nUHHoWJeEu-Wo_ba1Ecn-21" value="" style="dashed=0;html=1;shape=mxgraph.aws3.permissions;fillColor=#D9A741;gradientColor=none;dashed=0;" vertex="1" parent="nUHHoWJeEu-Wo_ba1Ecn-19">
          <mxGeometry x="19.159999999999997" width="30" height="35" as="geometry" />
        </mxCell>
        <mxCell id="nUHHoWJeEu-Wo_ba1Ecn-22" value="" style="group" vertex="1" connectable="0" parent="1">
          <mxGeometry x="933.75" y="1170" width="189.16" height="120" as="geometry" />
        </mxCell>
        <mxCell id="nUHHoWJeEu-Wo_ba1Ecn-23" value="Subnet-B" style="rounded=1;arcSize=10;dashed=0;fillColor=none;gradientColor=none;strokeWidth=2;" vertex="1" parent="nUHHoWJeEu-Wo_ba1Ecn-22">
          <mxGeometry y="20" width="189.16" height="100" as="geometry" />
        </mxCell>
        <mxCell id="nUHHoWJeEu-Wo_ba1Ecn-24" value="" style="dashed=0;html=1;shape=mxgraph.aws3.permissions;fillColor=#D9A741;gradientColor=none;dashed=0;" vertex="1" parent="nUHHoWJeEu-Wo_ba1Ecn-22">
          <mxGeometry x="19.159999999999997" width="30" height="35" as="geometry" />
        </mxCell>
        <mxCell id="nUHHoWJeEu-Wo_ba1Ecn-28" value="" style="edgeStyle=orthogonalEdgeStyle;html=1;endArrow=block;elbow=vertical;startArrow=block;startFill=1;endFill=1;strokeColor=#545B64;rounded=0;exitX=0.5;exitY=1;exitDx=0;exitDy=0;" edge="1" parent="1" source="nUHHoWJeEu-Wo_ba1Ecn-11" target="nUHHoWJeEu-Wo_ba1Ecn-6">
          <mxGeometry width="100" relative="1" as="geometry">
            <mxPoint x="550" y="1210" as="sourcePoint" />
            <mxPoint x="650" y="1210" as="targetPoint" />
          </mxGeometry>
        </mxCell>
        <mxCell id="nUHHoWJeEu-Wo_ba1Ecn-29" value="" style="edgeStyle=orthogonalEdgeStyle;html=1;endArrow=block;elbow=vertical;startArrow=block;startFill=1;endFill=1;strokeColor=#545B64;rounded=0;exitX=0.5;exitY=1;exitDx=0;exitDy=0;" edge="1" parent="1" source="nUHHoWJeEu-Wo_ba1Ecn-17">
          <mxGeometry width="100" relative="1" as="geometry">
            <mxPoint x="184.57999999999993" y="1290" as="sourcePoint" />
            <mxPoint x="307" y="1380" as="targetPoint" />
          </mxGeometry>
        </mxCell>
        <mxCell id="nUHHoWJeEu-Wo_ba1Ecn-30" value="" style="edgeStyle=orthogonalEdgeStyle;html=1;endArrow=block;elbow=vertical;startArrow=block;startFill=1;endFill=1;strokeColor=#545B64;rounded=0;" edge="1" parent="1" source="nUHHoWJeEu-Wo_ba1Ecn-6">
          <mxGeometry width="100" relative="1" as="geometry">
            <mxPoint x="550" y="1300" as="sourcePoint" />
            <mxPoint x="410" y="1405" as="targetPoint" />
          </mxGeometry>
        </mxCell>
        <mxCell id="nUHHoWJeEu-Wo_ba1Ecn-31" value="" style="aspect=fixed;perimeter=ellipsePerimeter;html=1;align=center;shadow=0;dashed=0;spacingTop=3;image;image=img/lib/active_directory/internet_globe.svg;" vertex="1" parent="1">
          <mxGeometry x="535" y="1700" width="50" height="50" as="geometry" />
        </mxCell>
        <mxCell id="nUHHoWJeEu-Wo_ba1Ecn-32" value="" style="edgeStyle=orthogonalEdgeStyle;html=1;endArrow=block;elbow=vertical;startArrow=block;startFill=1;endFill=1;strokeColor=#545B64;rounded=0;entryX=0.5;entryY=0;entryDx=0;entryDy=0;" edge="1" parent="1" source="nUHHoWJeEu-Wo_ba1Ecn-7" target="nUHHoWJeEu-Wo_ba1Ecn-31">
          <mxGeometry width="100" relative="1" as="geometry">
            <mxPoint x="420" y="1640" as="sourcePoint" />
            <mxPoint x="560" y="1650" as="targetPoint" />
            <Array as="points">
              <mxPoint x="435" y="1600" />
              <mxPoint x="560" y="1600" />
            </Array>
          </mxGeometry>
        </mxCell>
        <mxCell id="nUHHoWJeEu-Wo_ba1Ecn-34" value="" style="edgeStyle=orthogonalEdgeStyle;html=1;endArrow=block;elbow=vertical;startArrow=block;startFill=1;endFill=1;strokeColor=#545B64;rounded=0;" edge="1" parent="1" source="nUHHoWJeEu-Wo_ba1Ecn-6" target="nUHHoWJeEu-Wo_ba1Ecn-8">
          <mxGeometry width="100" relative="1" as="geometry">
            <mxPoint x="250" y="1650" as="sourcePoint" />
            <mxPoint x="650" y="1480" as="targetPoint" />
            <Array as="points">
              <mxPoint x="307" y="1482" />
            </Array>
          </mxGeometry>
        </mxCell>
        <mxCell id="nUHHoWJeEu-Wo_ba1Ecn-35" value="Route Table" style="outlineConnect=0;fontColor=#232F3E;gradientColor=none;fillColor=#5A30B5;strokeColor=none;dashed=0;verticalLabelPosition=bottom;verticalAlign=top;align=center;html=1;fontSize=12;fontStyle=0;aspect=fixed;pointerEvents=1;shape=mxgraph.aws4.route_table;" vertex="1" parent="1">
          <mxGeometry x="883.34" y="1380" width="51.32" height="50" as="geometry" />
        </mxCell>
        <mxCell id="nUHHoWJeEu-Wo_ba1Ecn-36" value="" style="edgeStyle=orthogonalEdgeStyle;html=1;endArrow=block;elbow=vertical;startArrow=block;startFill=1;endFill=1;strokeColor=#545B64;rounded=0;" edge="1" parent="1" source="nUHHoWJeEu-Wo_ba1Ecn-8" target="nUHHoWJeEu-Wo_ba1Ecn-35">
          <mxGeometry width="100" relative="1" as="geometry">
            <mxPoint x="630" y="1480" as="sourcePoint" />
            <mxPoint x="650" y="1480" as="targetPoint" />
          </mxGeometry>
        </mxCell>
        <mxCell id="nUHHoWJeEu-Wo_ba1Ecn-38" value="" style="edgeStyle=orthogonalEdgeStyle;html=1;endArrow=block;elbow=vertical;startArrow=block;startFill=1;endFill=1;strokeColor=#545B64;rounded=0;entryX=0.5;entryY=1;entryDx=0;entryDy=0;" edge="1" parent="1" source="nUHHoWJeEu-Wo_ba1Ecn-35" target="nUHHoWJeEu-Wo_ba1Ecn-20">
          <mxGeometry width="100" relative="1" as="geometry">
            <mxPoint x="550" y="1480" as="sourcePoint" />
            <mxPoint x="650" y="1480" as="targetPoint" />
          </mxGeometry>
        </mxCell>
        <mxCell id="nUHHoWJeEu-Wo_ba1Ecn-39" value="" style="edgeStyle=orthogonalEdgeStyle;html=1;endArrow=block;elbow=vertical;startArrow=block;startFill=1;endFill=1;strokeColor=#545B64;rounded=0;entryX=0.5;entryY=1;entryDx=0;entryDy=0;" edge="1" parent="1" source="nUHHoWJeEu-Wo_ba1Ecn-35" target="nUHHoWJeEu-Wo_ba1Ecn-23">
          <mxGeometry width="100" relative="1" as="geometry">
            <mxPoint x="909" y="1380" as="sourcePoint" />
            <mxPoint x="789.6700000000001" y="1290" as="targetPoint" />
          </mxGeometry>
        </mxCell>
      </root>
    </mxGraphModel>
  </diagram>
</mxfile>
